# xmcd
#
# Track frame offsets: 
#        150
#        13154
#        23380
#        34601
#        46775
#        59818
#        70471
#        81836
#        93685
#        118340
#        129159
#        139169
#        150784
#        161503
#
# Disc length: 2288 seconds
#
# Revision: 0
# Processed by: cddbd v1.5.1PL0 Copyright (c) Steve Scherf et al.
# Submitted via: ExactAudioCopy v0.90b4
#
DISCID=b208ee0e
DTITLE=Arthur Crudup - Rock Me Mama
DYEAR=2002
DGENRE=Blues
TTITLE0=Katie Mae
TTITLE1=Standing At My Window
TTITLE2=Rock Me Mama
TTITLE3=If I Get Lucky
TTITLE4=Death Valley Blues
TTITLE5=That's All Right Mama
TTITLE6=I'm In The Mood
TTITLE7=Mean Ol' Frisco
TTITLE8=Angel Child
TTITLE9=Ethel Mae
TTITLE10=Dig Myself A Hole
TTITLE11=My Mama Don't Allow Me
TTITLE12=I Love Her Just The Same
TTITLE13=Look On Yonder Wall
EXTD=
EXTT0=
EXTT1=
EXTT2=
EXTT3=
EXTT4=
EXTT5=
EXTT6=
EXTT7=
EXTT8=
EXTT9=
EXTT10=
EXTT11=
EXTT12=
EXTT13=
PLAYORDER=
